<svg width="43" height="60" viewBox="0 0 43 60" fill="none" xmlns="http://www.w3.org/2000/svg">
<g clip-path="url(#clip0_774_16762)">
<path d="M38.3076 26.4531C39.1715 29.0795 39.6035 31.76 39.6035 34.5488C39.6035 48.4658 29.6958 54.4766 24.9715 56.5344C23.3787 50.3069 23.9996 45.4333 26.8342 41.3448C27.8601 39.8827 29.3179 38.3665 30.8567 36.7961C33.5293 34.0343 36.7689 30.6769 38.3076 26.4531ZM36.6609 22.1481C35.392 29.6481 28.346 34.6029 24.6745 39.8557C20.0581 46.4892 21.273 54.0434 23.2437 60.0271C23.2437 60.0271 42.2491 54.8015 42.2491 34.5759C42.2491 28.2672 40.1164 21.9585 36.8498 17.0578C36.8228 17.0307 37.2278 18.7365 36.6609 22.1481Z" fill="#EF3942"/>
<path d="M17.2774 3.84476C22.0288 5.44224 28.9668 8.85379 30.8295 15.5415C32.5843 21.9043 28.0489 27.2653 23.6485 32.4368C22.2177 34.1155 20.8679 35.713 19.7611 37.3105C16.3325 42.2383 15.3067 48.0325 16.6835 54.9368C11.1492 52.6895 2.40244 47.6264 2.6724 38.3393C2.83438 32.6534 5.37203 29.5668 8.88155 25.2888C10.8793 22.8791 13.12 20.1444 15.1177 16.5975C17.8983 11.5884 17.9523 7.09386 17.2774 3.84476ZM12.985 0C12.985 0 17.5744 6.74188 12.769 15.2978C7.47775 24.7202 0.296729 28.0505 -0.000230292 38.2581C-0.432171 54.1516 20.463 58.9982 20.463 58.9982C18.4652 53.0415 17.2774 45.4603 21.8938 38.8538C26.5101 32.2202 36.1748 24.9639 33.3942 14.9458C30.0197 2.81588 12.985 0 12.985 0Z" fill="#EF3942"/>
</g>
<defs>
<clipPath id="clip0_774_16762">
<rect width="42.2222" height="60" fill="white"/>
</clipPath>
</defs>
</svg>
